<svg width="280" height="109" xmlns="http://www.w3.org/2000/svg" xmlns:xlink="http://www.w3.org/1999/xlink">

 <g>
  <title>background</title>
  <rect fill="transparent" id="canvas_background" height="111" width="282" y="-1" x="-1"/>
 </g>
 <g>
  <title>Layer 1</title>
  <svg y="-89" x="-4" id="svg_102" viewBox="0 0 2015.066 809.341" height="288" width="288" xmlns:xlink="http://www.w3.org/1999/xlink">
   <defs>
    <clipPath id="svg_101">
     <path id="svg_103" class="color000 svgShape" fill="#000000" d="m0,809.33984l2015.06641,0l0,-809.33984l-2015.06641,0l0,809.33984zm0,0"/>
    </clipPath>
    <clipPath id="svg_45">
     <rect id="svg_104" class="color000 svgShape" fill="#000000" height="810" width="2016"/>
    </clipPath>
    <clipPath id="svg_63">
     <rect id="svg_105" class="color000 svgShape" fill="#000000" height="810" width="2016"/>
    </clipPath>
    <clipPath id="svg_52">
     <path id="svg_106" class="color000 svgShape" fill="#000000" d="m0,809.33984l2015.06641,0l0,-809.33984l-2015.06641,0l0,809.33984zm0,0"/>
    </clipPath>
    <clipPath id="svg_91">
     <path id="svg_107" class="color000 svgShape" fill="#000000" d="m0,809.33984l2015.06641,0l0,-809.33984l-2015.06641,0l0,809.33984zm0,0"/>
    </clipPath>
    <clipPath id="svg_90">
     <rect id="svg_108" class="color000 svgShape" fill="#000000" height="810" width="2016"/>
    </clipPath>
    <clipPath id="svg_51">
     <rect id="svg_109" class="color000 svgShape" fill="#000000" height="810" width="2016"/>
    </clipPath>
    <clipPath id="svg_81">
     <path id="svg_110" class="color000 svgShape" fill="#000000" d="m0,809.33984l2015.06641,0l0,-809.33984l-2015.06641,0l0,809.33984zm0,0"/>
    </clipPath>
    <clipPath id="svg_80">
     <rect id="svg_111" class="color000 svgShape" fill="#000000" height="810" width="2016"/>
    </clipPath>
    <clipPath id="svg_85">
     <path id="svg_112" class="color000 svgShape" fill="#000000" d="m0,809.33984l2015.06641,0l0,-809.33984l-2015.06641,0l0,809.33984zm0,0"/>
    </clipPath>
    <clipPath id="svg_99">
     <path id="svg_113" class="color000 svgShape" fill="#000000" d="m0,809.33984l2015.06641,0l0,-809.33984l-2015.06641,0l0,809.33984zm0,0"/>
    </clipPath>
    <clipPath id="svg_98">
     <rect id="svg_114" class="color000 svgShape" fill="#000000" height="810" width="2016"/>
    </clipPath>
    <clipPath id="svg_84">
     <rect id="svg_115" class="color000 svgShape" fill="#000000" height="810" width="2016"/>
    </clipPath>
    <clipPath id="svg_67">
     <path id="svg_116" class="color000 svgShape" fill="#000000" d="m0,809.33984l2015.06641,0l0,-809.33984l-2015.06641,0l0,809.33984zm0,0"/>
    </clipPath>
    <clipPath id="svg_66">
     <rect id="svg_117" class="color000 svgShape" fill="#000000" height="810" width="2016"/>
    </clipPath>
    <clipPath id="svg_68">
     <rect id="svg_118" class="color000 svgShape" fill="#000000" height="810" width="2016"/>
    </clipPath>
    <clipPath id="svg_88">
     <path id="svg_119" class="color000 svgShape" fill="#000000" d="m0,809.33984l2015.06641,0l0,-809.33984l-2015.06641,0l0,809.33984zm0,0"/>
    </clipPath>
    <clipPath id="svg_97">
     <path id="svg_120" class="color000 svgShape" fill="#000000" d="m0,809.33984l2015.06641,0l0,-809.33984l-2015.06641,0l0,809.33984zm0,0"/>
    </clipPath>
    <clipPath id="svg_96">
     <rect id="svg_121" class="color000 svgShape" fill="#000000" height="810" width="2016"/>
    </clipPath>
    <clipPath id="svg_87">
     <rect id="svg_122" class="color000 svgShape" fill="#000000" height="810" width="2016"/>
    </clipPath>
    <clipPath id="svg_73">
     <path id="svg_123" class="color000 svgShape" fill="#000000" d="m0,809.33984l2015.06641,0l0,-809.33984l-2015.06641,0l0,809.33984zm0,0"/>
    </clipPath>
    <clipPath id="svg_72">
     <rect id="svg_124" class="color000 svgShape" fill="#000000" height="810" width="2016"/>
    </clipPath>
    <clipPath id="svg_69">
     <path id="svg_125" class="color000 svgShape" fill="#000000" d="m0,809.33984l2015.06641,0l0,-809.33984l-2015.06641,0l0,809.33984zm0,0"/>
    </clipPath>
    <clipPath id="svg_39">
     <path id="svg_126" class="color000 svgShape" fill="#000000" d="m0,809.33984l2015.06641,0l0,-809.33984l-2015.06641,0l0,809.33984zm0,0"/>
    </clipPath>
    <clipPath id="svg_50">
     <path id="svg_127" class="color000 svgShape" fill="#000000" d="m0,809.33984l2015.06641,0l0,-809.33984l-2015.06641,0l0,809.33984zm0,0"/>
    </clipPath>
    <clipPath id="svg_49">
     <rect id="svg_128" class="color000 svgShape" fill="#000000" height="810" width="2016"/>
    </clipPath>
    <clipPath id="svg_38">
     <rect id="svg_129" class="color000 svgShape" fill="#000000" height="810" width="2016"/>
    </clipPath>
    <clipPath id="svg_93">
     <path id="svg_130" class="color000 svgShape" fill="#000000" d="m0,809.33984l2015.06641,0l0,-809.33984l-2015.06641,0l0,809.33984zm0,0"/>
    </clipPath>
    <clipPath id="svg_92">
     <rect id="svg_131" class="color000 svgShape" fill="#000000" height="810" width="2016"/>
    </clipPath>
    <clipPath id="svg_64">
     <path id="svg_132" class="color000 svgShape" fill="#000000" d="m0,809.33984l2015.06641,0l0,-809.33984l-2015.06641,0l0,809.33984zm0,0"/>
    </clipPath>
    <clipPath id="svg_43">
     <rect id="svg_133" class="color000 svgShape" fill="#000000" height="810" width="2016"/>
    </clipPath>
    <clipPath id="svg_76">
     <path id="svg_134" class="color000 svgShape" fill="#000000" d="m0,809.33984l2015.06641,0l0,-809.33984l-2015.06641,0l0,809.33984zm0,0"/>
    </clipPath>
    <clipPath id="svg_74">
     <rect id="svg_135" class="color000 svgShape" fill="#000000" height="810" width="2016"/>
    </clipPath>
    <clipPath id="svg_100">
     <rect id="svg_136" class="color000 svgShape" fill="#000000" height="810" width="2016"/>
    </clipPath>
    <clipPath id="svg_44">
     <path id="svg_137" class="color000 svgShape" fill="#000000" d="m0,809.33984l2015.06641,0l0,-809.33984l-2015.06641,0l0,809.33984zm0,0"/>
    </clipPath>
    <clipPath id="svg_62">
     <path id="svg_138" class="color000 svgShape" fill="#000000" d="m0,809.33984l2015.06641,0l0,-809.33984l-2015.06641,0l0,809.33984zm0,0"/>
    </clipPath>
    <clipPath id="svg_61">
     <rect id="svg_139" class="color000 svgShape" fill="#000000" height="810" width="2016"/>
    </clipPath>
    <clipPath id="svg_33">
     <path id="svg_140" class="color000 svgShape" fill="#000000" d="m0,809.33984l2015.06641,0l0,-809.33984l-2015.06641,0l0,809.33984zm0,0"/>
    </clipPath>
    <clipPath id="svg_42">
     <path id="svg_141" class="color000 svgShape" fill="#000000" d="m0,809.33984l2015.06641,0l0,-809.33984l-2015.06641,0l0,809.33984zm0,0"/>
    </clipPath>
    <clipPath id="svg_41">
     <rect id="svg_142" class="color000 svgShape" fill="#000000" height="810" width="2016"/>
    </clipPath>
    <clipPath id="svg_32">
     <rect id="svg_143" class="color000 svgShape" fill="#000000" height="810" width="2016"/>
    </clipPath>
    <clipPath id="svg_95">
     <path id="svg_144" class="color000 svgShape" fill="#000000" d="m0,809.33984l2015.06641,0l0,-809.33984l-2015.06641,0l0,809.33984zm0,0"/>
    </clipPath>
    <clipPath id="svg_94">
     <rect id="svg_145" class="color000 svgShape" fill="#000000" height="810" width="2016"/>
    </clipPath>
    <clipPath id="svg_57">
     <rect id="svg_146" class="color000 svgShape" fill="#000000" height="810" width="2016"/>
    </clipPath>
    <clipPath id="svg_78">
     <path id="svg_147" class="color000 svgShape" fill="#000000" d="m0,809.33984l2015.06641,0l0,-809.33984l-2015.06641,0l0,809.33984zm0,0"/>
    </clipPath>
    <clipPath id="svg_83">
     <path id="svg_148" class="color000 svgShape" fill="#000000" d="m0,809.33984l2015.06641,0l0,-809.33984l-2015.06641,0l0,809.33984zm0,0"/>
    </clipPath>
    <clipPath id="svg_82">
     <rect id="svg_149" class="color000 svgShape" fill="#000000" height="810" width="2016"/>
    </clipPath>
    <clipPath id="svg_77">
     <rect id="svg_150" class="color000 svgShape" fill="#000000" height="810" width="2016"/>
    </clipPath>
    <clipPath id="svg_71">
     <path id="svg_151" class="color000 svgShape" fill="#000000" d="m0,809.33984l2015.06641,0l0,-809.33984l-2015.06641,0l0,809.33984zm0,0"/>
    </clipPath>
    <clipPath id="svg_70">
     <rect id="svg_152" class="color000 svgShape" fill="#000000" height="810" width="2016"/>
    </clipPath>
    <clipPath id="svg_58">
     <path id="svg_153" class="color000 svgShape" fill="#000000" d="m0,809.33984l2015.06641,0l0,-809.33984l-2015.06641,0l0,809.33984zm0,0"/>
    </clipPath>
    <clipPath id="svg_55">
     <path id="svg_154" class="color000 svgShape" fill="#000000" d="m0,809.33984l2015.06641,0l0,-809.33984l-2015.06641,0l0,809.33984zm0,0"/>
    </clipPath>
    <clipPath id="svg_60">
     <path id="svg_155" class="color000 svgShape" fill="#000000" d="m0,809.33984l2015.06641,0l0,-809.33984l-2015.06641,0l0,809.33984zm0,0"/>
    </clipPath>
    <clipPath id="svg_59">
     <rect id="svg_156" class="color000 svgShape" fill="#000000" height="810" width="2016"/>
    </clipPath>
    <clipPath id="svg_54">
     <rect id="svg_157" class="color000 svgShape" fill="#000000" height="810" width="2016"/>
    </clipPath>
    <clipPath id="svg_48">
     <path id="svg_158" class="color000 svgShape" fill="#000000" d="m0,809.33984l2015.06641,0l0,-809.33984l-2015.06641,0l0,809.33984zm0,0"/>
    </clipPath>
    <clipPath id="svg_47">
     <rect id="svg_159" class="color000 svgShape" fill="#000000" height="810" width="2016"/>
    </clipPath>
    <clipPath id="svg_46">
     <path id="svg_160" class="color000 svgShape" fill="#000000" d="m0,809.33984l2015.06641,0l0,-809.33984l-2015.06641,0l0,809.33984zm0,0"/>
    </clipPath>
    <clipPath id="svg_37">
     <path id="svg_161" class="color000 svgShape" fill="#000000" d="m0,809.33984l2015.06641,0l0,-809.33984l-2015.06641,0l0,809.33984zm0,0"/>
    </clipPath>
    <clipPath id="svg_35">
     <rect id="svg_162" class="color000 svgShape" fill="#000000" height="810" width="2016"/>
    </clipPath>
    <g id="svg_163" class="color000 svgShape" fill="#000000" clip-path="url(#svg_100)">
     <g class="color000 svgShape" fill="#000000" clip-path="url(#svg_101)" id="svg_12">
      <use id="svg_164" xlink:href="#svg_75"/>
     </g>
    </g>
    <g id="svg_165" class="color000 svgShape" fill="#000000" clip-path="url(#svg_98)">
     <g class="color000 svgShape" fill="#000000" clip-path="url(#svg_99)" id="svg_86">
      <path id="svg_166" class="color4a4a4a svgShape" d="m1175.72266,47.21875c0.03515,-0.04687 0.10547,-0.14453 0.13672,-0.19141c-0.03125,0.04688 -0.10157,0.14454 -0.13672,0.19141zm0,0" fill="#1f5775"/>
     </g>
    </g>
    <g id="svg_167" class="color000 svgShape" fill="#000000" clip-path="url(#svg_96)">
     <g class="color000 svgShape" fill="#000000" clip-path="url(#svg_97)" id="svg_89">
      <path id="svg_168" class="color3b3b3b svgShape" d="m724.24219,349.31641c2.11328,-1.16797 3.91406,-3.09766 6.42578,-3.39453c-3.21484,2.48828 -6.75391,4.49609 -10.12891,6.73828c-92.36718,59.44531 -184.79297,118.82422 -277.1289,178.3125c-2.6875,0.35937 -5.39063,0.16015 -8.08594,0.07031c0.45703,-0.74219 1.03906,-1.33594 1.77734,-1.79297c95.70313,-59.98437 191.4375,-119.93359 287.14063,-179.93359zm0,0" fill="#19455d"/>
     </g>
    </g>
    <g id="svg_169" class="color000 svgShape" fill="#000000" clip-path="url(#svg_94)">
     <g class="color000 svgShape" fill="#000000" clip-path="url(#svg_95)" id="svg_29">
      <path id="svg_170" class="color000 svgShape" fill="#000000" d="m0,809.33984l2015.06641,0l0,-809.33984l-2015.06641,0l0,809.33984zm0,0" fill-opacity="0.6"/>
     </g>
    </g>
    <g id="svg_171" class="color000 svgShape" fill="#000000" clip-path="url(#svg_92)">
     <g class="color000 svgShape" fill="#000000" clip-path="url(#svg_93)" id="svg_31">
      <path id="svg_172" class="color000 svgShape" fill="#000000" d="m0,809.33984l2015.06641,0l0,-809.33984l-2015.06641,0l0,809.33984zm0,0" fill-opacity="0.62"/>
     </g>
    </g>
    <g id="svg_173" class="color000 svgShape" fill="#000000" clip-path="url(#svg_90)">
     <g class="color000 svgShape" fill="#000000" clip-path="url(#svg_91)" id="svg_53">
      <path id="svg_174" class="color383838 svgShape" d="m1177.38672,44.88281c0.04297,-0.04687 0.11328,-0.15234 0.14453,-0.19922c-0.03125,0.04688 -0.10156,0.15235 -0.14453,0.19922zm0,0" fill="#184258"/>
     </g>
    </g>
    <g id="svg_175" class="color000 svgShape" fill="#000000" clip-path="url(#svg_87)">
     <g class="color000 svgShape" fill="#000000" clip-path="url(#svg_88)" id="svg_16">
      <use id="svg_176" xlink:href="#svg_89"/>
     </g>
    </g>
    <g id="svg_177" class="color000 svgShape" fill="#000000" clip-path="url(#svg_84)">
     <g class="color000 svgShape" fill="#000000" clip-path="url(#svg_85)" id="svg_18">
      <use id="svg_178" xlink:href="#svg_86"/>
     </g>
    </g>
    <g id="svg_179" class="color000 svgShape" fill="#000000" clip-path="url(#svg_82)">
     <g class="color000 svgShape" fill="#000000" clip-path="url(#svg_83)" id="svg_79">
      <path id="svg_180" class="color4d4d4d svgShape" d="m945.03516,773.14063c8.35937,-0.12891 16.72265,0.16796 25.0664,0.69531c-8.35547,0.09375 -16.7539,0.34375 -25.0664,-0.69531zm0,0" fill="#205a7a"/>
     </g>
    </g>
    <g id="svg_181" class="color000 svgShape" fill="#000000" clip-path="url(#svg_80)">
     <g class="color000 svgShape" fill="#000000" clip-path="url(#svg_81)" id="svg_23">
      <path id="svg_182" class="color000 svgShape" fill="#000000" d="m0,809.33984l2015.06641,0l0,-809.33984l-2015.06641,0l0,809.33984zm0,0" fill-opacity="0.41"/>
     </g>
    </g>
    <g id="svg_183" class="color000 svgShape" fill="#000000" clip-path="url(#svg_77)">
     <g class="color000 svgShape" fill="#000000" clip-path="url(#svg_78)" id="svg_8">
      <use id="svg_184" xlink:href="#svg_79"/>
     </g>
    </g>
    <g id="svg_185" class="color000 svgShape" fill="#000000" clip-path="url(#svg_74)">
     <g class="color000 svgShape" fill="#000000" clip-path="url(#svg_76)" id="svg_75">
      <path id="svg_186" class="color525252 svgShape" d="m671.33203,766.01172c7.84766,-0.18359 15.71094,0.0625 23.55078,0.59766c-7.84765,0.1289 -15.75,0.35546 -23.55078,-0.59766zm0,0" fill="#226082"/>
     </g>
    </g>
    <g id="svg_187" class="color000 svgShape" fill="#000000" clip-path="url(#svg_72)">
     <g class="color000 svgShape" fill="#000000" clip-path="url(#svg_73)" id="svg_25">
      <path id="svg_188" class="color000 svgShape" fill="#000000" d="m0,809.33984l2015.06641,0l0,-809.33984l-2015.06641,0l0,809.33984zm0,0" fill-opacity="0.58"/>
     </g>
    </g>
    <g id="svg_189" class="color000 svgShape" fill="#000000" clip-path="url(#svg_70)">
     <g class="color000 svgShape" fill="#000000" clip-path="url(#svg_71)" id="svg_26">
      <path id="svg_190" class="color000 svgShape" fill="#000000" d="m0,809.33984l2015.06641,0l0,-809.33984l-2015.06641,0l0,809.33984zm0,0" fill-opacity="0.59"/>
     </g>
    </g>
    <g id="svg_191" class="color000 svgShape" fill="#000000" clip-path="url(#svg_68)">
     <g class="color000 svgShape" fill="#000000" clip-path="url(#svg_69)" id="svg_65">
      <path id="svg_192" class="color424242 svgShape" d="m1195.26953,779.70703c17.78125,-0.1914 35.56641,0.0625 53.35156,-0.12109c17.72657,-0.04688 35.44532,-0.00781 53.17579,-0.00781c0.6875,-0.00782 2.0625,-0.00782 2.75,-0.00782c51.70703,-0.07031 103.41015,0.11328 155.11328,-0.09375c21.625,0.35938 43.27343,0.14453 64.91015,0.08594c36.70703,-0.00781 73.41016,0.00781 110.1211,0c29.87109,0.10547 59.7539,-0.20703 89.60937,0.15234l0.0625,0.54297c-50.41406,0.01563 -100.83984,0 -151.2539,0c-40.02344,0.21875 -80.05079,-0.63672 -120.06641,0.00782c-66.66406,0.02734 -133.32813,-0.04688 -199.99219,0.00781c-11.74219,-0.41406 -23.48828,-0.14844 -35.23047,-0.22266c-7.51172,-0.18359 -15.07422,0.40235 -22.55078,-0.34375zm0,0" fill="#1c4d68"/>
     </g>
    </g>
    <g id="svg_193" class="color000 svgShape" fill="#000000" clip-path="url(#svg_66)">
     <g class="color000 svgShape" fill="#000000" clip-path="url(#svg_67)" id="svg_24">
      <path id="svg_194" class="color000 svgShape" fill="#000000" d="m0,809.33984l2015.06641,0l0,-809.33984l-2015.06641,0l0,809.33984zm0,0" fill-opacity="0.3"/>
     </g>
    </g>
    <g id="svg_195" class="color000 svgShape" fill="#000000" clip-path="url(#svg_63)">
     <g class="color000 svgShape" fill="#000000" clip-path="url(#svg_64)" id="svg_2">
      <use id="svg_196" xlink:href="#svg_65"/>
     </g>
    </g>
    <g id="svg_197" class="color000 svgShape" fill="#000000" clip-path="url(#svg_61)">
     <g class="color000 svgShape" fill="#000000" clip-path="url(#svg_62)" id="svg_28">
      <path id="svg_198" class="color000 svgShape" fill="#000000" d="m0,809.33984l2015.06641,0l0,-809.33984l-2015.06641,0l0,809.33984zm0,0" fill-opacity="0.61"/>
     </g>
    </g>
    <g id="svg_199" class="color000 svgShape" fill="#000000" clip-path="url(#svg_59)">
     <g class="color000 svgShape" fill="#000000" clip-path="url(#svg_60)" id="svg_56">
      <path id="svg_200" class="color4d4d4d svgShape" d="m975.42969,773.94531c8.35156,-0.14062 16.70312,0.1875 25.03906,0.6836c-8.34375,0.10937 -16.73828,0.34375 -25.03906,-0.6836zm0,0" fill="#205a7a"/>
     </g>
    </g>
    <g id="svg_201" class="color000 svgShape" fill="#000000" clip-path="url(#svg_57)">
     <g class="color000 svgShape" fill="#000000" clip-path="url(#svg_58)" id="svg_27">
      <path id="svg_202" class="color000 svgShape" fill="#000000" d="m0,809.33984l2015.06641,0l0,-809.33984l-2015.06641,0l0,809.33984zm0,0" fill-opacity="0.36"/>
     </g>
    </g>
    <g id="svg_203" class="color000 svgShape" fill="#000000" clip-path="url(#svg_54)">
     <g class="color000 svgShape" fill="#000000" clip-path="url(#svg_55)" id="svg_6">
      <use id="svg_204" xlink:href="#svg_56"/>
     </g>
    </g>
    <g id="svg_205" class="color000 svgShape" fill="#000000" clip-path="url(#svg_51)">
     <g class="color000 svgShape" fill="#000000" clip-path="url(#svg_52)" id="svg_20">
      <use id="svg_206" xlink:href="#svg_53"/>
     </g>
    </g>
    <g id="svg_207" class="color000 svgShape" fill="#000000" clip-path="url(#svg_49)">
     <g class="color000 svgShape" fill="#000000" clip-path="url(#svg_50)" id="svg_40">
      <path id="svg_208" class="color525252 svgShape" d="m639.35547,765.21875c7.59375,-0.23828 15.19922,0.01563 22.77734,0.59375c-7.59375,0.14453 -15.23437,0.34375 -22.77734,-0.59375zm0,0" fill="#226082"/>
     </g>
    </g>
    <g id="svg_209" class="color000 svgShape" fill="#000000" clip-path="url(#svg_47)">
     <g class="color000 svgShape" fill="#000000" clip-path="url(#svg_48)" id="svg_30">
      <path id="svg_210" class="color000 svgShape" fill="#000000" d="m0,809.33984l2015.06641,0l0,-809.33984l-2015.06641,0l0,809.33984zm0,0" fill-opacity="0.3"/>
     </g>
    </g>
    <g id="svg_211" class="color000 svgShape" fill="#000000" clip-path="url(#svg_45)">
     <g class="color000 svgShape" fill="#000000" clip-path="url(#svg_46)" id="svg_4">
      <use id="svg_212" xlink:href="#svg_36"/>
     </g>
    </g>
    <g id="svg_213" class="color000 svgShape" fill="#000000" clip-path="url(#svg_43)">
     <g class="color000 svgShape" fill="#000000" clip-path="url(#svg_44)" id="svg_22">
      <path id="svg_214" class="color000 svgShape" fill="#000000" d="m0,809.33984l2015.06641,0l0,-809.33984l-2015.06641,0l0,809.33984zm0,0" fill-opacity="0.29"/>
     </g>
    </g>
    <g id="svg_215" class="color000 svgShape" fill="#000000" clip-path="url(#svg_41)">
     <g class="color000 svgShape" fill="#000000" clip-path="url(#svg_42)" id="svg_34">
      <path id="svg_216" class="color525252 svgShape" d="m916.14063,772.41016c7.32031,-0.19922 14.66406,0.01562 21.96875,0.60937c-7.32032,0.11328 -14.69922,0.35156 -21.96875,-0.60937zm0,0" fill="#226082"/>
     </g>
    </g>
    <g id="svg_217" class="color000 svgShape" fill="#000000" clip-path="url(#svg_38)">
     <g class="color000 svgShape" fill="#000000" clip-path="url(#svg_39)" id="svg_14">
      <use id="svg_218" xlink:href="#svg_40"/>
     </g>
    </g>
    <g id="svg_219" class="color000 svgShape" fill="#000000" clip-path="url(#svg_35)">
     <g class="color000 svgShape" fill="#000000" clip-path="url(#svg_37)" id="svg_36">
      <path id="svg_220" class="color3b3b3b svgShape" d="m1979.17188,778.33984l-0.07032,-0.51171c0.74219,0.63281 1.17578,1.4375 1.27735,2.4375c-21.10157,-0.4375 -42.22266,-0.07032 -63.32813,-0.19141c-27.21484,-0.03906 -54.42969,0.09766 -81.64062,-0.01563c-36.96485,-0.15234 -73.90235,1.96094 -110.84766,2.53516c-0.05469,-0.58203 -0.15234,-1.75 -0.19922,-2.33594l-0.0625,-0.54297c13.83985,0.17579 27.6875,0.02344 41.53516,0.07422c27.00781,-0.05859 54.03906,0.15625 81.04687,-0.27343l0.23438,-0.01563c4.51953,0.33594 9.07031,0.375 13.60547,0.07031c39.55468,0.17578 79.11328,0.1211 118.67187,0.03125c-0.05469,-0.3164 -0.16797,-0.94922 -0.22265,-1.26172zm0,0" fill="#19455d"/>
     </g>
    </g>
    <g id="svg_221" class="color000 svgShape" fill="#000000" clip-path="url(#svg_32)">
     <g class="color000 svgShape" fill="#000000" clip-path="url(#svg_33)" id="svg_10">
      <use id="svg_222" xlink:href="#svg_34"/>
     </g>
    </g>
    <mask id="svg_11">
     <g id="svg_223" class="color000 svgShape" fill="#000000" filter="url(#svg_21)">
      <use id="svg_224" xlink:href="#svg_31"/>
     </g>
    </mask>
    <mask id="svg_3">
     <g id="svg_225" class="color000 svgShape" fill="#000000" filter="url(#svg_21)">
      <use id="svg_226" xlink:href="#svg_30"/>
     </g>
    </mask>
    <mask id="svg_7">
     <g id="svg_227" class="color000 svgShape" fill="#000000" filter="url(#svg_21)">
      <use id="svg_228" xlink:href="#svg_29"/>
     </g>
    </mask>
    <mask id="svg_9">
     <g id="svg_229" class="color000 svgShape" fill="#000000" filter="url(#svg_21)">
      <use id="svg_230" xlink:href="#svg_28"/>
     </g>
    </mask>
    <mask id="svg_1">
     <g id="svg_231" class="color000 svgShape" fill="#000000" filter="url(#svg_21)">
      <use id="svg_232" xlink:href="#svg_27"/>
     </g>
    </mask>
    <mask id="svg_5">
     <g id="svg_233" class="color000 svgShape" fill="#000000" filter="url(#svg_21)">
      <use id="svg_234" xlink:href="#svg_26"/>
     </g>
    </mask>
    <mask id="svg_13">
     <g id="svg_235" class="color000 svgShape" fill="#000000" filter="url(#svg_21)">
      <use id="svg_236" xlink:href="#svg_25"/>
     </g>
    </mask>
    <mask id="svg_15">
     <g id="svg_237" class="color000 svgShape" fill="#000000" filter="url(#svg_21)">
      <use id="svg_238" xlink:href="#svg_24"/>
     </g>
    </mask>
    <mask id="svg_17">
     <g id="svg_239" class="color000 svgShape" fill="#000000" filter="url(#svg_21)">
      <use id="svg_240" xlink:href="#svg_23"/>
     </g>
    </mask>
    <mask id="svg_19">
     <g id="svg_241" class="color000 svgShape" fill="#000000" filter="url(#svg_21)">
      <use id="svg_242" xlink:href="#svg_22"/>
     </g>
    </mask>
    <filter filterUnits="objectBoundingBox" y="0%" x="0%" height="100%" width="100%" id="svg_21"/>
   </defs>
   <path id="svg_243" class="color707070 svgShape" d="m1189.33984,26.82031c2.04688,-0.0664 3.63282,1.32813 5.33594,2.26172c57.23047,33.44922 114.47266,66.88281 171.71094,100.32031c25.71484,14.95313 51.3125,30.11329 77.09766,44.9375c-0.25,0.28907 -0.73829,0.8711 -0.98438,1.16016c-12.46484,-6.48047 -24.39062,-13.97656 -36.65625,-20.82422c-71.71094,-41.24219 -143.35156,-82.60937 -215.0625,-123.83984c-0.17578,1.07031 -0.32031,2.14453 -0.43359,3.21484c-0.21485,-2.27344 -0.55078,-4.53515 -0.92578,-6.78515l-0.08204,-0.44532zm0,0" fill="#2f83b1"/>
   <path id="svg_244" class="color545454 svgShape" d="m1186.10938,32.08203c0.97656,-1.6875 2.0625,-3.3125 3.3125,-4.8164c0.375,2.25 0.71093,4.51171 0.92578,6.78515c2.99218,30.35938 6.01562,60.71094 9.08203,91.0625c-0.08203,2.15235 1.58203,3.61719 2.92578,5.0586c78.02344,84.4375 155.98437,168.93359 234.02344,253.36718c-39.07813,5.61719 -78.22266,10.86328 -117.32813,16.32032c-0.58203,-0.92969 -1.16797,-1.83204 -1.74219,-2.72657c-17.51953,-27.45703 -34.63281,-55.17578 -52.04687,-82.69922c-16.49609,-26.41406 -33.12891,-52.73437 -49.60938,-79.14843c-1.26562,-1.76172 -2.17578,-5.01172 -4.97656,-3.76172c-19.63281,4.0625 -39.24609,8.22265 -58.8789,12.30469l-0.32032,-0.11329c2.16016,-16.13671 5.44922,-32.11328 7.95313,-48.19921c9.39844,-54.10547 18.44531,-108.27344 27.93359,-162.36719c-0.3125,-0.26563 -0.9414,-0.80078 -1.2539,-1.06641zm0,0" fill="#236285"/>
   <path id="svg_245" class="color828282 svgShape" d="m1190.78125,30.83594c71.71094,41.23047 143.35156,82.59765 215.0625,123.83984c12.26563,6.84766 24.19141,14.34375 36.65625,20.82422c7.40625,45.32813 14.32813,90.75781 21.63281,136.09375c2.625,3.9375 6.33594,7.03516 9.40625,10.625c15.35157,16.625 30.76172,33.19141 46.08985,49.83984c-19.78516,2.91407 -39.60938,5.4961 -59.41016,8.30469c-7.82422,1.28125 -15.78125,1.79297 -23.52734,3.51953l-0.3125,-0.34375c-78.03907,-84.43359 -156,-168.92968 -234.02344,-253.36718c-1.34375,-1.44141 -3.00781,-2.90625 -2.92578,-5.0586c-3.06641,-30.35156 -6.08985,-60.70312 -9.08203,-91.0625c0.11328,-1.07031 0.25781,-2.14453 0.43359,-3.21484zm0,0" fill="#3a97ca"/>
   <path id="svg_246" class="color4a4a4a svgShape" d="m1186.10938,32.08203c0.3125,0.26563 0.9414,0.80078 1.2539,1.06641c-9.48828,54.09375 -18.53515,108.26172 -27.93359,162.36719c-2.50391,16.08593 -5.79297,32.0625 -7.95313,48.19921c-16.40234,3.83204 -32.96093,6.96875 -49.42578,10.53516c-20.6875,4.27344 -41.34375,8.64844 -62.02344,12.96094c-2.26953,0.6875 -5.07031,0.51953 -6.9414,1.99219c-0.83203,4.43359 -0.10547,9.02343 -0.34766,13.51953c-0.01562,66.39062 0.03516,132.77734 -0.02344,199.16797c0.14454,2.80859 -0.51953,5.8164 0.72266,8.45703c5.58203,-70.71094 10.46875,-141.4961 15.91016,-212.23438c11.05468,-2.16797 22.16015,-4.125 33.21484,-6.32422c1,7.35157 1.21094,14.78907 1.86719,22.1836c1.6875,21.8164 3.26172,43.63672 4.9414,65.44531c1.38672,4.74609 4.33594,8.875 6.35157,13.37891c57.51953,113.72656 115.1914,227.38281 172.67968,341.125c11.32813,21.78515 21.98438,43.91406 33.39454,65.65625c-17.73047,0 -35.44922,-0.03907 -53.17579,0.00781c-11.89843,-31.02344 -24.41796,-61.8086 -36.53515,-92.74219c-1.04297,-2.60156 -1.83203,-5.375 -3.60938,-7.58594c-38.64062,-45.90234 -77.22265,-91.84765 -115.82422,-137.77343c-5.58593,-6.35938 -10.64062,-13.19141 -16.53515,-19.25782c-4.12891,16.32032 -7.3711,32.8711 -11.24219,49.25782c-10.17578,45.78906 -20.67187,91.51953 -30.70312,137.33593c23.86328,19.81641 47.52734,39.88672 71.33593,59.76563c3.25782,2.88281 6.76172,5.47265 9.90235,8.49609c-5.87891,0.3711 -11.75782,-0.08594 -17.63672,0.08985c-1.7461,-0.03907 -3.48828,0.00781 -5.20313,-0.22657c-7.75781,-1.18359 -15.66406,-0.35937 -23.47656,-0.57422c-1.28125,0.01563 -2.54687,-0.00781 -3.77734,-0.1914c-7.48828,-1.375 -15.1211,-0.16016 -22.66407,-0.78516c-12.20703,-1.17578 -24.47265,-0.4375 -36.71093,-0.66406c-1.83203,0 -3.65625,0 -5.47266,-0.10156c-8.33594,-0.4961 -16.6875,-0.82422 -25.03906,-0.6836c-1.78516,-0.00781 -3.5625,-0.01562 -5.32813,-0.10937c-8.34375,-0.52735 -16.70703,-0.82422 -25.0664,-0.69531c-2.32032,-0.02735 -4.63282,0.01562 -6.92578,-0.1211c-7.30469,-0.59375 -14.64844,-0.80859 -21.96875,-0.60937c-10.59375,-0.4375 -21.20704,0.12109 -31.76172,-0.8711c7.15234,-0.19922 14.29687,0.27344 21.4414,0.35157c6.16797,-80.16797 12.64063,-160.30469 18.90235,-240.46485c5.89062,-73.92578 11.61718,-147.86328 17.54687,-221.78906c-0.05859,-1.57813 1.05469,-2.63281 2.27735,-3.43359c36.875,-26.84766 73.72265,-53.74219 110.57031,-80.63282c4.90234,-3.89453 10.58203,-6.9414 14.88672,-11.51953c33.00781,-51.53515 65.83203,-103.1914 98.7539,-154.78515c1.75782,-3.19141 4.42188,-5.91797 5.39063,-9.51172c0.33594,-0.94141 0.99219,-1.71875 1.57422,-2.53516c0.03515,-0.04687 0.10547,-0.14453 0.13672,-0.19141c0.38281,-0.53515 1.14453,-1.60937 1.52734,-2.14453c0.04297,-0.04687 0.11328,-0.15234 0.14453,-0.19922c2.9375,-4.14453 5.77734,-8.35937 8.57813,-12.60156zm0,0" fill="#1f5775"/>
   <use id="svg_247" xlink:href="#svg_20" mask="url(#svg_19)"/>
   <use id="svg_248" xlink:href="#svg_18" mask="url(#svg_17)"/>
   <path id="svg_249" class="color707070 svgShape" d="m1143.59766,92.60156c10.21484,-14.2539 20.14062,-28.73437 30.55078,-42.84765c-0.96875,3.59375 -3.63281,6.32031 -5.39063,9.51172c-32.92187,51.59375 -65.74609,103.25 -98.7539,154.78515c-4.30469,4.57813 -9.98438,7.625 -14.88672,11.51953c-36.84766,26.89063 -73.69531,53.78516 -110.57031,80.63282c-1.22266,0.80078 -2.33594,1.85546 -2.27735,3.43359c-5.92969,73.92578 -11.65625,147.86328 -17.54687,221.78906c-6.26172,80.16016 -12.73438,160.29688 -18.90235,240.46485c-7.14453,-0.07813 -14.28906,-0.55079 -21.4414,-0.35157c-9.6211,-0.22265 -19.25391,-0.33593 -28.86328,-0.74218c1.94531,-0.00782 3.88671,-0.08204 5.84765,-0.13672c-8.97656,-22.45703 -18.54297,-44.67969 -27.64844,-67.08203c-1.18359,-2.83985 0.71485,-5.64844 1.42579,-8.33594c31.00781,-97.27735 61.91796,-194.58203 92.96875,-291.84766c1.83203,-6.96875 4.86328,-13.625 6.17578,-20.71875c1.85547,-23.73828 4.07812,-47.44922 5.61328,-71.19922c-11.70313,7.82422 -22.9336,16.33594 -34.51172,24.34375c-2.20703,1.35938 -4.07813,3.61328 -6.79688,3.85547c-12.08203,1.30469 -24.21875,2.03125 -36.28125,3.4375c-5.48828,15.97656 -10.51171,32.1211 -15.9375,48.12891c-1.90234,5.46484 -3.24609,11.13672 -5.5039,16.48047c-2.69531,-7.14453 -4.63281,-14.55078 -6.95313,-21.81641c-4.84765,-15.35937 -9.34375,-30.83203 -14.36718,-46.13672c-6.38282,4.15235 -12.27735,9 -18.44532,13.44922c-6.57031,4.88672 -13.24218,9.64063 -19.64062,14.75391c0.10156,-2.0586 1.85547,-3.4336 3.03125,-4.9375c6.19922,-6.91016 12.05469,-14.14453 18.29687,-21.00782c46,-12.09765 92.21485,-23.52734 138.26172,-35.48828c21.44141,-18.73437 42.48047,-37.99218 63.78516,-56.91797c24.48047,-21.92968 48.95312,-43.86718 73.45703,-65.76171c2.48047,-2.08204 4.00781,-4.99219 5.93359,-7.54297c19.79297,-27.90625 39.57813,-55.8086 59.3711,-83.71485zm0,0" fill="#2f83b1"/>
   <path id="svg_250" class="color4a4a4a svgShape" d="m1442.5,175.5c0.24609,-0.28906 0.73438,-0.87109 0.98438,-1.16016c9.29687,5.55079 18.69531,10.96094 27.83984,16.75782l-0.23047,0.00781c-0.32812,0.05078 -0.99219,0.15234 -1.32031,0.20312c0.71094,8.22266 2.51172,16.30079 3.63672,24.48047c3.80078,23.90235 7.57031,47.8125 11.3789,71.71875c0.60547,2.83985 0.2461,6.1211 2.07813,8.5586c92.55469,112.01562 185.07422,224.05859 277.625,336.08203c8.48828,10.16797 16.74219,20.52734 25.44922,30.51953l-0.03516,0.90234c-4.44531,-3.8789 -7.92578,-8.67187 -12.11719,-12.79297c-86.00781,-92.92578 -171.95312,-185.94921 -258.16015,-278.71875c-15.32813,-16.64843 -30.73828,-33.21484 -46.08985,-49.83984c-3.07031,-3.58984 -6.78125,-6.6875 -9.40625,-10.625c-7.30468,-45.33594 -14.22656,-90.76562 -21.63281,-136.09375zm0,0" fill="#1f5775"/>
   <path id="svg_251" class="color828282 svgShape" d="m1469.77344,191.30859c0.32812,-0.05078 0.99219,-0.15234 1.32031,-0.20312c20.93359,12.21875 41.62891,24.85937 62.50391,37.17969c0.01562,0.27734 0.03125,0.84765 0.03906,1.125c0.00781,2.88281 2.42187,4.96875 3.69531,7.3789c103.44141,163.27735 206.76953,326.6211 310.19922,489.89453c0.5625,1.03125 1.04688,2.12891 1.53516,3.22266c-2.75,-2.07031 -4.54297,-5.07031 -7.05469,-7.38281c-3.46484,-3.20703 -6.11328,-7.16797 -9.54297,-10.39063c-3.87109,-3.64843 -6.92187,-8.04297 -10.81641,-11.64062c-7.91406,-8.89063 -16.19921,-17.42578 -24.04687,-26.35938c-2.44141,-2.69922 -5.46484,-4.92187 -7.18359,-8.1875c1.46875,1.22657 3.00781,2.37891 4.61328,3.45703c-1.00782,-2.71875 -3.12891,-4.72656 -5.09375,-6.73437c-8.70703,-9.99219 -16.96094,-20.35156 -25.44922,-30.51953c-92.55078,-112.02344 -185.07031,-224.06641 -277.625,-336.08203c-1.83203,-2.4375 -1.47266,-5.71875 -2.07813,-8.5586c-3.80859,-23.90625 -7.57812,-47.8164 -11.3789,-71.71875c-1.125,-8.17968 -2.92578,-16.25781 -3.63672,-24.48047zm0,0" fill="#3a97ca"/>
   <path id="svg_252" class="colora3a3a3 svgShape" d="m1533.59766,228.28516c21.54297,12.91797 43.21484,25.64453 64.64453,38.73437c40.02734,43.71875 79.85937,87.65625 119.88281,131.39063c12.66406,14.00781 25.52734,27.83984 38.13672,41.91406c-0.32813,0.07812 -0.99219,0.25391 -1.32031,0.33594c-73.79297,-70.38672 -147.53125,-140.83203 -221.30469,-211.25c-0.00781,-0.27735 -0.02344,-0.84766 -0.03906,-1.125zm0,0" fill="#6eb3d8"/>
   <path id="svg_253" class="color707070 svgShape" d="m1537.33203,236.78906c-1.27344,-2.41015 -3.6875,-4.49609 -3.69531,-7.3789c73.77344,70.41797 147.51172,140.86328 221.30469,211.25c0.32812,-0.08203 0.99218,-0.25782 1.32031,-0.33594l0.14062,-0.05078c1.90625,2.28906 4.46485,4.09765 5.71485,6.88281c0.78906,1.80078 2.16015,3.41406 2.58984,5.35938c-0.36719,2.3125 0.8711,4.375 1.69531,6.44921c31.41016,77.8125 63.06641,155.5586 94.37891,233.39844c0.39844,26.36719 0.03906,52.78516 0.19922,79.17578c0.03125,2.28125 -0.10547,4.56641 -0.24219,6.85547c-4.52734,0.73828 -9.21484,-0.29687 -13.62109,1.10547l-0.23438,0.01563c-3.62109,-3.76172 -8.26953,-6.25782 -12.35937,-9.44141c-33.8086,-24.07813 -67.65625,-48.10156 -101.46485,-72.17578c-7.125,-5.12891 -14.26171,-10.23047 -21.5039,-15.17578c-0.07813,0.625 -0.2461,1.87109 -0.33594,2.5039c-0.40625,-1.89453 -0.17578,-4.12109 -1.49609,-5.64843c-90.98438,-98.58985 -182.04688,-197.10938 -273.03125,-295.69532c7.74609,-1.72656 15.70312,-2.23828 23.52734,-3.51953c19.80078,-2.80859 39.625,-5.39062 59.41016,-8.30469c86.20703,92.76954 172.15234,185.79297 258.16015,278.71875c4.19141,4.1211 7.67188,8.91407 12.11719,12.79297l0.03516,-0.90234c1.96484,2.00781 4.08593,4.01562 5.09375,6.73437c-1.60547,-1.07812 -3.14453,-2.23046 -4.61328,-3.45703c1.71875,3.26563 4.74218,5.48828 7.18359,8.1875c7.84766,8.9336 16.13281,17.46875 24.04687,26.35938c3.89454,3.59765 6.94532,7.99219 10.81641,11.64062c3.42969,3.22266 6.07813,7.1836 9.54297,10.39063c2.51172,2.3125 4.30469,5.3125 7.05469,7.38281c-0.48828,-1.09375 -0.97266,-2.19141 -1.53516,-3.22266c-103.42969,-163.27343 -206.75781,-326.61718 -310.19922,-489.89453zm0,0" fill="#2f83b1"/>
   <path id="svg_254" class="color828282 svgShape" d="m1151.79688,243.82813c19.63281,-4.08204 39.24609,-8.24219 58.8789,-12.30469c2.80078,-1.25 3.71094,2 4.97656,3.76172c16.48047,26.41406 33.11329,52.73437 49.60938,79.14843c17.41406,27.52344 34.52734,55.24219 52.04687,82.69922l-0.45703,0.78907c-6.59765,-5.28516 -12.24609,-11.61329 -18.75,-17.00782c-5.21875,-5.51172 -11.25,-10.14453 -16.48047,-15.62109c-10.40234,-9.3125 -20.36718,-19.07422 -30.73828,-28.40234c-5.38281,-5.58204 -11.51172,-10.35938 -16.88672,-15.94532c-5.98437,-4.9414 -11.16796,-10.73437 -17.1289,-15.69531c-5.375,-5.58203 -11.48828,-10.35156 -16.86328,-15.91797c-6.19922,-5.25781 -11.73438,-11.21875 -17.94532,-16.45703c-4.93359,-5.23047 -10.66406,-9.61719 -15.65625,-14.78516c-4.91015,-4.70312 -10.44531,-8.83203 -14.60546,-14.26171zm0,0" fill="#3a97ca"/>
   <path id="svg_255" class="color707070 svgShape" d="m1151.47656,243.71484l0.32032,0.11329c4.16015,5.42968 9.69531,9.55859 14.60546,14.26171c4.99219,5.16797 10.72266,9.55469 15.65625,14.78516c6.21094,5.23828 11.7461,11.19922 17.94532,16.45703c5.375,5.56641 11.48828,10.33594 16.86328,15.91797c5.96094,4.96094 11.14453,10.75391 17.1289,15.69531c5.375,5.58594 11.50391,10.36328 16.88672,15.94532c10.3711,9.32812 20.33594,19.08984 30.73828,28.40234c5.23047,5.47656 11.26172,10.10937 16.48047,15.62109c6.50391,5.39453 12.15235,11.72266 18.75,17.00782l0.45703,-0.78907c0.57422,0.89453 1.16016,1.79688 1.74219,2.72657c15.8086,25.72656 32.08985,51.16796 48.05078,76.80078c37.35157,59.4375 74.60547,118.93359 111.96485,178.35937c2.8164,4.98438 4.49609,10.4961 6.85156,15.70313c13.33594,32.26562 26.6875,64.51953 40.01562,96.78515c1.40625,3.47266 3.03125,6.8711 3.99219,10.51953c-8.96875,-10.33593 -17.3125,-21.22265 -26.03515,-31.77734c-38.98438,-47.95703 -77.91016,-95.96484 -116.90235,-143.91797c-3.29687,-3.8789 -6.16015,-8.16797 -9.97656,-11.57031c-47.20703,-41.0625 -94.39063,-82.16016 -141.625,-123.19922c-2.27734,-1.98437 -4.90234,-3.79297 -6.11719,-6.66406c-31.26562,-64.19922 -62.65625,-128.33594 -93.89062,-192.5586c-2.45313,-4.59375 -4.2461,-9.5625 -7.22266,-13.85546c1.42188,6.71875 4.20703,13.07031 6.21484,19.64062c11.35938,33.24609 22.36719,66.61328 33.73047,99.86328c10.72657,32.375 21.90235,64.59766 32.53516,97.00781c1.6875,5.58985 4.23828,10.96875 5.12891,16.77344c-2.875,-6.03125 -4.59375,-12.51953 -7.07422,-18.71094c-9.60547,-26.38281 -19.07813,-52.83203 -28.64844,-79.23046c-2.18359,-5.67969 -3.87109,-11.5625 -6.39844,-17.09766c-4.09765,29.46484 -7.96094,58.95312 -11.89844,88.44141c-0.23828,2.16015 -0.76562,4.5039 0.3125,6.55078c32.30469,67.6875 64.42579,135.48047 96.71485,203.17578c0.74219,-4.03906 -0.09766,-8.12891 -0.16016,-12.19141c-0.58594,-16.92969 -2.18359,-33.82422 -2.20312,-50.76953c2.82422,5.52344 4.13672,11.64844 6.32031,17.43359c10.78516,31.9375 21.59375,63.86329 32.27344,95.83204c6.61718,19.41796 13.28125,38.83203 19.54297,58.36718c-0.6875,0 -2.0625,0 -2.75,0.00782c-11.41016,-21.74219 -22.06641,-43.8711 -33.39454,-65.65625c-57.48828,-113.74219 -115.16015,-227.39844 -172.67968,-341.125c-2.01563,-4.50391 -4.96485,-8.63282 -6.35157,-13.37891c-1.67968,-21.80859 -3.2539,-43.62891 -4.9414,-65.44531c-0.65625,-7.39453 -0.86719,-14.83203 -1.86719,-22.1836c-11.05469,2.19922 -22.16016,4.15625 -33.21484,6.32422c-5.44141,70.73828 -10.32813,141.52344 -15.91016,212.23438c-1.24219,-2.64063 -0.57812,-5.64844 -0.72266,-8.45703c0.0586,-66.39063 0.00782,-132.77735 0.02344,-199.16797c0.24219,-4.4961 -0.48437,-9.08594 0.34766,-13.51953c1.87109,-1.47266 4.67187,-1.30469 6.9414,-1.99219c20.67969,-4.3125 41.33594,-8.6875 62.02344,-12.96094c16.46485,-3.56641 33.02344,-6.70312 49.42578,-10.53516m139.19141,178.25782c-14.92188,11.75781 -29.84766,23.49609 -44.76953,35.24609c-2.35156,2.16016 -5.40625,3.6875 -7.34375,6.20703c2.88281,3.54688 6.70703,6.24219 9.92969,9.48828c15.90234,14.48047 31.48828,29.35157 47.63281,43.57032c7.67187,-38.72266 15.10937,-77.48829 22.52734,-116.25c-9.57812,6.90625 -18.60937,14.55468 -27.97656,21.73828zm0,0" fill="#2f83b1"/>
   <path id="svg_256" class="color4a4a4a svgShape" d="m1128.15625,254.48438c2.97656,4.29296 4.76953,9.26171 7.22266,13.85546c31.23437,64.22266 62.625,128.35938 93.89062,192.5586c1.21485,2.87109 3.83985,4.67969 6.11719,6.66406c47.23437,41.03906 94.41797,82.13672 141.625,123.19922c3.81641,3.40234 6.67969,7.69141 9.97656,11.57031c38.99219,47.95313 77.91797,95.96094 116.90235,143.91797c8.72265,10.55469 17.0664,21.44141 26.03515,31.77734c-0.96094,-3.64843 -2.58594,-7.04687 -3.99219,-10.51953c-13.32812,-32.26562 -26.67968,-64.51953 -40.01562,-96.78515c-2.35547,-5.20703 -4.03516,-10.71875 -6.85156,-15.70313c-37.35938,-59.42578 -74.61328,-118.92187 -111.96485,-178.35937c-15.96093,-25.63282 -32.24218,-51.07422 -48.05078,-76.80078c39.10547,-5.45704 78.25,-10.70313 117.32813,-16.32032l0.3125,0.34375c90.98437,98.58594 182.04687,197.10547 273.03125,295.69532c1.32031,1.52734 1.08984,3.7539 1.49609,5.64843c3.71484,26.23438 7.42578,52.46485 11.09766,78.70313c0.6875,5.25781 1.80859,10.46484 1.98437,15.78515c-29.85547,-0.35937 -59.73828,-0.04687 -89.60937,-0.15234c-36.71094,0.00781 -73.41407,-0.00781 -110.1211,0c-11.42968,-9.80078 -23.33593,-19.04687 -34.9414,-28.63281c-36.0586,-29.28516 -72.10547,-58.57422 -108.13672,-87.88672c-6.48828,-4.91797 -12.375,-10.64063 -19.1836,-15.11328c2.36719,6.16015 5.52735,11.99219 8.39063,17.9375c16.73047,33.95312 33.20703,68.03125 50.03906,101.92969c8.64844,2.54296 17.32031,5 25.96875,7.55859c4.32031,1.36719 8.79297,2.28125 12.95313,4.12109c-51.70313,0.20703 -103.40625,0.02344 -155.11328,0.09375c-6.26172,-19.53515 -12.92579,-38.94922 -19.54297,-58.36718c-10.67969,-31.96875 -21.48828,-63.89454 -32.27344,-95.83204c-2.18359,-5.78515 -3.49609,-11.91015 -6.32031,-17.43359c-0.91797,-3.89453 -0.48438,-8.05469 -2.03907,-11.79687c-13.27734,-35.97657 -25.75781,-72.24219 -38.60546,-108.3711c-0.89063,-5.80469 -3.44141,-11.18359 -5.12891,-16.77344c-10.63281,-32.41015 -21.80859,-64.63281 -32.53516,-97.00781c-11.36328,-33.25 -22.37109,-66.61719 -33.73047,-99.86328c-2.00781,-6.57031 -4.79296,-12.92187 -6.21484,-19.64062zm0,0" fill="#1f5775"/>
   <path id="svg_257" class="color4f4f4f svgShape" d="m905.38672,335.82031c11.57812,-8.00781 22.80859,-16.51953 34.51172,-24.34375c-1.53516,23.75 -3.75781,47.46094 -5.61328,71.19922c-1.3125,7.09375 -4.34375,13.75 -6.17578,20.71875c-31.05079,97.26563 -61.96094,194.57031 -92.96875,291.84766c-0.71094,2.6875 -2.60938,5.49609 -1.42579,8.33594c9.10547,22.40234 18.67188,44.625 27.64844,67.08203c-1.96094,0.05468 -3.90234,0.1289 -5.84765,0.13672c-10.95313,-0.19532 -21.90235,-0.14454 -32.83985,-0.82422c-10.40625,-0.16797 -20.82422,-0.16016 -31.21484,-0.8086c-9.57813,-0.20703 -19.22656,-0.01562 -28.72266,-0.71093c5.32813,0.09375 10.66406,-0.41797 15.98438,0.11718c3.05078,-20.05468 5.73047,-40.17578 8.6875,-60.2539c2.39453,-16.47266 4.3789,-33.02344 7.59375,-49.3711c5.52734,-31.28515 11.12109,-62.55859 16.71093,-93.82031c0.57032,-4.26562 -0.54296,-8.50391 -0.83984,-12.73828c-3.73437,-35.20703 -7.44531,-70.40625 -11.23047,-105.60938c-0.36719,-3.51953 -0.30469,-7.10937 -1.45703,-10.49218c-2.11328,29.52734 -4.83203,59 -7.07812,88.51953c-0.15235,2.91015 -2.15235,5.17578 -3.57032,7.57422c-4.28515,6.6875 -8.32812,13.52734 -12.61328,20.21484c-1.21094,1.89844 -2.66406,3.79297 -2.82422,6.12891c-6.96875,67.48047 -14.15234,134.94531 -21.1289,202.42578c-0.39453,2.10937 0.00781,4.5664 -1.06641,6.45312c-6.375,0.21875 -12.75781,-0.14062 -19.13281,-0.0625c-11.96875,0.01563 -23.9375,-0.42578 -35.89063,-0.92968c-7.83984,-0.53516 -15.70312,-0.78125 -23.55078,-0.59766c-3.07031,-0.10547 -6.14453,-0.06641 -9.19922,-0.19922c-7.57812,-0.57812 -15.18359,-0.83203 -22.77734,-0.59375c-1.71094,0 -3.40625,-0.09375 -5.10156,-0.15234c-4.28125,-4.41407 -9.32813,-7.98438 -13.9375,-12.03125c-24.58594,-20.48828 -49.16797,-40.96875 -73.75391,-61.44922c-1.46875,-1.32813 -3.07031,-2.50391 -4.72656,-3.56641c0.52734,8.11328 2.13672,16.11328 3.07812,24.1836c2.21875,16.85546 4.76172,33.67968 6.76953,50.55859c-4.85546,0.07422 -9.71093,-0.02344 -14.5664,-0.00781l-1.44141,-0.03125c-5.07031,-31.58203 -10.07031,-63.1836 -15.27344,-94.74219c0.51172,-0.14453 1.03516,-0.25781 1.57032,-0.35156c84.83203,-98.53125 169.90234,-196.88282 254.64062,-295.4961c-0.08203,-1.04297 -0.14453,-2.08203 -0.22656,-3.11328c0.22656,0.39844 0.65625,1.19141 0.88281,1.58203c1.46094,-0.75 2.8711,-1.6289 4.19141,-2.6289c6.39844,-5.11328 13.07031,-9.86719 19.64062,-14.75391c6.16797,-4.44922 12.0625,-9.29687 18.44532,-13.44922c5.02343,15.30469 9.51953,30.77735 14.36718,46.13672c2.32032,7.26563 4.25782,14.67188 6.95313,21.81641c2.25781,-5.34375 3.60156,-11.01563 5.5039,-16.48047c5.42579,-16.00781 10.44922,-32.15235 15.9375,-48.12891c12.0625,-1.40625 24.19922,-2.13281 36.28125,-3.4375c2.71875,-0.24219 4.58985,-2.49609 6.79688,-3.85547zm0,0" fill="#215c7d"/>
   <path id="svg_258" class="color616161 svgShape" d="m769.14063,321.02734c4.72656,-2.54296 9.08593,-5.6875 13.67187,-8.48828c6.69531,9.8086 13.29688,19.67188 19.97656,29.48828c-6.24218,6.86329 -12.09765,14.09766 -18.29687,21.00782c-1.17578,1.5039 -2.92969,2.8789 -3.03125,4.9375c-1.32031,1 -2.73047,1.8789 -4.19141,2.6289c-0.22656,-0.39062 -0.65625,-1.18359 -0.88281,-1.58203c-1.93359,-15.89453 -3.86328,-31.80859 -6.03125,-47.67187l-1.21484,-0.32032zm0,0" fill="#297199"/>
   <path id="svg_259" class="color454545 svgShape" d="m767.69922,322.13281c0.35937,-0.27343 1.08203,-0.82422 1.44141,-1.10547l1.21484,0.32032c2.16797,15.86328 4.09766,31.77734 6.03125,47.67187c0.08203,1.03125 0.14453,2.07031 0.22656,3.11328c-84.73828,98.61328 -169.80859,196.96485 -254.64062,295.4961c-0.53516,0.09375 -1.0586,0.20703 -1.57032,0.35156l-0.23046,-1.10547c-0.15235,-2.18359 -1.28907,-4.71875 -0.02344,-6.70312c79.91797,-108.88672 159.92578,-217.71094 239.83203,-326.60157c2.375,-3.82422 5.88672,-6.93359 7.59766,-11.15234l0.12109,-0.28516zm0,0" fill="#1d516d"/>
   <path id="svg_260" class="color616161 svgShape" d="m730.66797,345.92188c12.23047,-7.92579 24.48047,-15.87891 36.91016,-23.50391c-1.71094,4.21875 -5.22266,7.32812 -7.59766,11.15234c-79.90625,108.89063 -159.91406,217.71485 -239.83203,326.60157c-1.26563,1.98437 -0.12891,4.51953 0.02344,6.70312c-17.1836,-27.10547 -34.4336,-54.17578 -51.60938,-81.28906c-3.23047,-4.85547 -5.93359,-10.10156 -9.70312,-14.56641l0.25781,-0.15234c15.55859,-9.1836 30.69531,-19.09766 46.09375,-28.5586c-1.99219,-1.10546 -4.27735,-1.25781 -6.48047,-1.53125c-16.01563,-2.36718 -32.02344,-4.77343 -48.03906,-7.14062c-3.86328,-0.61719 -7.76563,-0.89063 -11.57422,-1.81641c1.42969,-0.23437 2.8789,-0.47265 4.29297,-0.84765c92.33593,-59.48828 184.76172,-118.86719 277.1289,-178.3125c3.375,-2.24219 6.91407,-4.25 10.12891,-6.73828zm0,0" fill="#297199"/>
   <use id="svg_261" xlink:href="#svg_16" mask="url(#svg_15)"/>
   <path id="svg_262" class="colora3a3a3 svgShape" d="m1163.64453,372.73047c2.52735,5.53516 4.21485,11.41797 6.39844,17.09766c9.57031,26.39843 19.04297,52.84765 28.64844,79.23046c2.48047,6.19141 4.19922,12.67969 7.07422,18.71094c12.84765,36.12891 25.32812,72.39453 38.60546,108.3711c1.55469,3.74218 1.1211,7.90234 2.03907,11.79687c0.01953,16.94531 1.61718,33.83984 2.20312,50.76953c0.0625,4.0625 0.90235,8.15235 0.16016,12.19141c-32.28906,-67.69531 -64.41016,-135.48828 -96.71485,-203.17578c-1.07812,-2.04688 -0.55078,-4.39063 -0.3125,-6.55078c3.9375,-29.48829 7.80079,-58.97657 11.89844,-88.44141zm127.02344,49.24219c9.36719,-7.1836 18.39844,-14.83203 27.97656,-21.73828c-7.41797,38.76171 -14.85547,77.52734 -22.52734,116.25c-16.14453,-14.21875 -31.73047,-29.08985 -47.63281,-43.57032c-3.22266,-3.24609 -7.04688,-5.9414 -9.92969,-9.48828c1.9375,-2.51953 4.99219,-4.04687 7.34375,-6.20703c14.92187,-11.75 29.84765,-23.48828 44.76953,-35.24609zm0,0" fill="#6eb3d8"/>
   <path id="svg_263" class="color707070 svgShape" d="m798.1875,436.28516c1.15234,3.38281 1.08984,6.97265 1.45703,10.49218c3.78516,35.20313 7.4961,70.40235 11.23047,105.60938c0.29688,4.23437 1.41016,8.47266 0.83984,12.73828c-5.58984,31.26172 -11.18359,62.53516 -16.71093,93.82031c-3.21485,16.34766 -5.19922,32.89844 -7.59375,49.3711c-2.95703,20.07812 -5.63672,40.19922 -8.6875,60.2539c-5.32032,-0.53515 -10.65625,-0.02343 -15.98438,-0.11718c-10.64453,-0.52344 -21.32812,-0.09766 -31.96484,-0.91407c6.375,-0.07812 12.75781,0.28125 19.13281,0.0625c1.07422,-1.88672 0.67188,-4.34375 1.06641,-6.45312c6.97656,-67.48047 14.16015,-134.94531 21.1289,-202.42578c0.16016,-2.33594 1.61328,-4.23047 2.82422,-6.12891c4.28516,-6.6875 8.32813,-13.52734 12.61328,-20.21484c1.41797,-2.39844 3.41797,-4.66407 3.57032,-7.57422c2.24609,-29.51953 4.96484,-58.99219 7.07812,-88.51953zm0,0" fill="#2f83b1"/>
   <path id="svg_264" class="color828282 svgShape" d="m1766.40234,458.96484c-0.82421,-2.07421 -2.0625,-4.13671 -1.69531,-6.44921c7.1836,12.98437 13.72266,26.34375 20.6875,39.45703c19.44141,37.30078 38.90625,74.58984 58.35156,111.88672c4.25782,7.86328 8.05079,16.00781 12.59375,23.70312c40.0625,49.16797 80.26563,98.24219 120.19141,147.52734c-5.6875,0.51954 -11.39062,0.36329 -17.07031,0.51954c-6.42578,-0.11719 -12.8086,0.84375 -19.22656,0.66406c-10.39844,-0.125 -20.75,1 -31.14063,0.89062c-7.23437,-0.10547 -14.42578,0.74219 -21.64844,0.71094c-6.1289,0.18359 -12.27343,-0.07031 -18.37109,0.66406c-2.79688,0.32813 -5.72656,-0.17578 -8.35156,1.03125c-4.53516,0.30469 -9.08594,0.26563 -13.60547,-0.07031c4.40625,-1.40234 9.09375,-0.36719 13.62109,-1.10547c0.13672,-2.28906 0.27344,-4.57422 0.24219,-6.85547c-0.16016,-26.39062 0.19922,-52.80859 -0.19922,-79.17578c-31.3125,-77.83984 -62.96875,-155.58594 -94.37891,-233.39844zm0,0" fill="#3a97ca"/>
   <path id="svg_265" class="color707070 svgShape" d="m1064.875,571.48438c3.87109,-16.38672 7.11328,-32.9375 11.24219,-49.25782c5.89453,6.06641 10.94922,12.89844 16.53515,19.25782c38.60157,45.92578 77.1836,91.87109 115.82422,137.77343c1.77735,2.21094 2.56641,4.98438 3.60938,7.58594c12.11719,30.93359 24.63672,61.71875 36.53515,92.74219c-17.78515,0.18359 -35.57031,-0.07031 -53.35156,0.12109c-31.16015,-0.72656 -62.32812,-1.75 -93.49609,-2.27344c-1.36328,0.09766 -2.77735,0.48047 -4,-0.26171c5.8789,-0.17579 11.75781,0.28125 17.63672,-0.08985c-3.14063,-3.02344 -6.64453,-5.61328 -9.90235,-8.49609c-23.80859,-19.87891 -47.47265,-39.94922 -71.33593,-59.76563c10.03125,-45.8164 20.52734,-91.54687 30.70312,-137.33593zm0,0" fill="#2f83b1"/>
   <path id="svg_266" class="color595959 svgShape" d="m385.97266,531.37109c16.42187,-0.59375 32.91015,0.03125 49.35156,-0.32812c2.69531,0.08984 5.39844,0.28906 8.08594,-0.07031c-1.41407,0.375 -2.86328,0.61328 -4.29297,0.84765c-1.54688,-0.13672 -3.09766,-0.21093 -4.64063,-0.24218c7.82422,13.32812 16.48828,26.15234 24.64063,39.28906l-0.25781,0.15234c-2.00782,1.41406 -4.16016,2.65625 -6.04688,4.2461c-0.48047,1.0664 -0.49609,2.25781 -0.64062,3.41015c-3.44922,41.36719 -7.00782,82.71875 -10.48829,124.08594c-0.04687,1.54687 -0.53515,3.60156 1.28907,4.36328c7.67187,4.62891 15.39062,9.17578 23.04687,13.8125c1.65625,0.73828 1.30469,2.68359 1.41016,4.15234c-0.02735,6.96094 0.03906,13.92969 -0.08985,20.89063c-9.43359,0.47266 -18.8789,0.01562 -28.32031,0.19922c-2,4.80859 -4.39844,9.4414 -6.75781,14.07812c-11.30469,0 -22.60156,-0.5039 -33.89844,-0.8164c1.95313,-7.58985 5.16797,-14.78907 7.61719,-22.22266c2.38281,-6.44141 4.52734,-12.96875 7.02344,-19.35937c0.6875,-1.6875 0.89453,-3.51954 0.55078,-5.29688c-3.54297,-23.10156 -7.0625,-46.19922 -10.58203,-69.30469c-2.92188,-18.08593 -5.25782,-36.27734 -8.44922,-54.32812c-2.75781,1.08203 -5.17578,2.80078 -7.70313,4.3125c-35.05468,20.96875 -70.16797,41.82422 -105.1289,62.9375c-8.82422,5.41406 -17.96094,10.35156 -26.63282,16.01562c34.40235,27.375 69.10547,54.36719 103.63282,81.57422c1.69531,1.28125 3.32031,2.65625 4.89843,4.09766c-8.25,0.58594 -16.53125,-0.16016 -24.79296,0.10547c-13.58594,-0.40235 -27.25,0.1914 -40.75391,-1.53907c1.57031,0.15235 3.14453,0.06641 4.72266,0.07422c-5.82422,-5.0664 -12.3711,-9.21484 -18.53125,-13.85547c-24.54297,-17.83984 -49.04688,-35.74609 -73.62891,-53.52734c-2.35156,-1.66406 -4.47266,-3.74609 -7.16797,-4.83203c-2.10547,-0.28906 -4.22656,0.10937 -6.3125,0.30859c-22.94531,2.19532 -45.94531,3.82422 -68.86328,6.25782c4.90234,15.69531 10.21484,31.26562 14.98047,47c-0.5586,0.05468 -1.67188,0.16015 -2.22266,0.21484c-11.21484,-1.10156 -22.39062,-2.59766 -33.58984,-3.83984c-5.48828,-0.80079 -11.06641,-1.01563 -16.50391,-2.10157c-3.9375,-1.12109 -7.60156,-3.13672 -11.6914,-3.73828c-4.14063,-1.47265 -8.04688,-3.54297 -12.10938,-5.22265c2.21484,-2.24219 5.17578,-3.41797 7.86328,-4.95313c47.8711,-25.96875 95.72656,-51.96094 143.58985,-77.95312c5.51562,-3.26172 11.45703,-5.76563 16.80078,-9.32813l-0.40625,-0.55078l-0.11328,-0.15234c4.83203,-1.55079 9.66406,-3.30469 13.90625,-6.14454c1.93359,-1.10937 3.61328,-2.69531 5.67968,-3.55859c2.57422,-0.39062 4.88672,-1.59375 7.15235,-2.81641c29.48828,-14.8164 59.03906,-29.52734 88.51172,-44.375c26.04687,-13.1289 52.24609,-25.95312 78.15234,-39.34375c1.52734,-0.60937 2.84766,-1.57812 4.23047,-2.43359c-2.4961,-0.375 -5.01563,-0.4375 -7.52735,-0.38281c-12.99218,0.17578 -26,-0.19922 -38.99218,0.1914zm0,0" fill="#25688d"/>
   <path id="svg_267" class="color707070 svgShape" d="m284.64453,599.92188c33.76563,-22.86329 67.61719,-45.60547 101.32813,-68.55079c12.99218,-0.39062 26,-0.01562 38.99218,-0.1914c2.51172,-0.05469 5.03125,0.00781 7.52735,0.38281c-1.38281,0.85547 -2.70313,1.82422 -4.23047,2.43359c-25.90625,13.39063 -52.10547,26.21485 -78.15234,39.34375c-29.47266,14.84766 -59.02344,29.5586 -88.51172,44.375c-2.26563,1.22266 -4.57813,2.42579 -7.15235,2.81641c9.87891,-7.12891 20.16797,-13.69531 30.19922,-20.60937zm0,0" fill="#2f83b1"/>
   <path id="svg_268" class="color4d4d4d svgShape" d="m434.47656,531.57813c1.54297,0.03125 3.09375,0.10546 4.64063,0.24218c3.80859,0.92578 7.71094,1.19922 11.57422,1.81641c16.01562,2.36719 32.02343,4.77344 48.03906,7.14062c2.20312,0.27344 4.48828,0.42579 6.48047,1.53125c-15.39844,9.46094 -30.53516,19.375 -46.09375,28.5586c-8.15235,-13.13672 -16.81641,-25.96094 -24.64063,-39.28906zm0,0" fill="#205a7a"/>
   <path id="svg_269" class="color707070 svgShape" d="m452.8125,575.26563c1.88672,-1.58985 4.03906,-2.83204 6.04688,-4.2461c3.76953,4.46485 6.47265,9.71094 9.70312,14.56641c17.17578,27.11328 34.42578,54.18359 51.60938,81.28906l0.23046,1.10547c5.20313,31.55859 10.20313,63.16016 15.27344,94.74219c-34.47265,-0.75 -68.94531,-1.66407 -103.41406,-2.46485c2.35937,-4.63672 4.75781,-9.26953 6.75781,-14.07812c9.44141,-0.1836 18.88672,0.27344 28.32031,-0.19922c0.12891,-6.96094 0.0625,-13.92969 0.08985,-20.89063c-0.10547,-1.46875 0.24609,-3.41406 -1.41016,-4.15234c-7.65625,-4.63672 -15.375,-9.18359 -23.04687,-13.8125c-1.82422,-0.76172 -1.33594,-2.81641 -1.28907,-4.36328c3.48047,-41.36719 7.03907,-82.71875 10.48829,-124.08594c0.14453,-1.15234 0.16015,-2.34375 0.64062,-3.41015zm-65.99219,17.97656c2.52735,-1.51172 4.94532,-3.23047 7.70313,-4.3125c3.1914,18.05078 5.52734,36.24219 8.44922,54.32812c3.51953,23.10547 7.03906,46.20313 10.58203,69.30469c0.34375,1.77734 0.13672,3.60938 -0.55078,5.29688c-2.4961,6.39062 -4.64063,12.91796 -7.02344,19.35937c-2.44922,7.43359 -5.66406,14.63281 -7.61719,22.22266c-9.5039,-0.17578 -19,-0.39063 -28.5039,-0.70313c-10.35157,-0.26172 -20.71875,-0.13672 -31.0625,-0.76562c8.26171,-0.26563 16.54296,0.48047 24.79296,-0.10547c-1.57812,-1.44141 -3.20312,-2.81641 -4.89843,-4.09766c-34.52735,-27.20703 -69.23047,-54.19922 -103.63282,-81.57422c8.67188,-5.66406 17.8086,-10.60156 26.63282,-16.01562c34.96093,-21.11328 70.07422,-41.96875 105.1289,-62.9375zm-196.12109,52.51172c14.78516,-5.04688 29.44922,-10.45313 44.27344,-15.36719l0.40625,0.55078c-5.34375,3.5625 -11.28516,6.06641 -16.80078,9.32813c-47.86329,25.99218 -95.71875,51.98437 -143.58985,77.95312c-2.6875,1.53516 -5.64844,2.71094 -7.86328,4.95313c-10.55469,-4.81641 -21.25781,-9.30469 -31.74609,-14.26563c11.625,-3.26172 23.26562,-6.45312 34.89843,-9.69531c23.77344,-6.44141 47.23829,-13.96094 70.8711,-20.87891c2.23828,-0.55469 4,-2.09765 5.86328,-3.35156l36.45703,-25.05859c2.30469,-1.5586 4.50391,-3.41407 7.23047,-4.16797zm1171.60937,2.17578c6.8086,4.47265 12.69532,10.19531 19.1836,15.11328c36.03125,29.3125 72.07812,58.60156 108.13672,87.88672c11.60547,9.58594 23.51172,18.83203 34.9414,28.63281c-21.63672,0.05859 -43.28515,0.27344 -64.91015,-0.08594c-4.16016,-1.83984 -8.63282,-2.7539 -12.95313,-4.12109c-8.64844,-2.55859 -17.32031,-5.01563 -25.96875,-7.55859c-16.83203,-33.89844 -33.30859,-67.97657 -50.03906,-101.92969c-2.86328,-5.94531 -6.02344,-11.77735 -8.39063,-17.9375zm0,0" fill="#2f83b1"/>
   <path id="svg_270" class="color828282 svgShape" d="m1711.55469,682.72266c7.24219,4.94531 14.3789,10.04687 21.5039,15.17578c33.8086,24.07422 67.65625,48.09765 101.46485,72.17578c4.08984,3.18359 8.73828,5.67969 12.35937,9.44141c-27.00781,0.42968 -54.03906,0.21484 -81.04687,0.27343c-13.84766,-0.05078 -27.69531,0.10157 -41.53516,-0.07422c-0.17578,-5.32031 -1.29687,-10.52734 -1.98437,-15.78515c-3.67188,-26.23828 -7.38282,-52.46875 -11.09766,-78.70313c0.08984,-0.63281 0.25781,-1.8789 0.33594,-2.5039zm0,0" fill="#3a97ca"/>
   <path id="svg_271" class="color707070 svgShape" d="m128.26172,690.85938c22.91797,-2.4336 45.91797,-4.0625 68.86328,-6.25782c2.08594,-0.19922 4.20703,-0.59765 6.3125,-0.30859c2.69531,1.08594 4.81641,3.16797 7.16797,4.83203c24.58203,17.78125 49.08594,35.6875 73.62891,53.52734c6.16015,4.64063 12.70703,8.78907 18.53125,13.85547c-1.57813,-0.00781 -3.15235,0.07813 -4.72266,-0.07422c-52.34375,-6.10937 -104.6875,-12.23046 -157.02344,-18.35937c0.55078,-0.05469 1.66406,-0.16016 2.22266,-0.21484c-4.76563,-15.73438 -10.07813,-31.30469 -14.98047,-47zm413.57422,-2.83985c1.65625,1.0625 3.25781,2.23828 4.72656,3.56641c24.58594,20.48047 49.16797,40.96094 73.75391,61.44922c4.60937,4.04687 9.65625,7.61718 13.9375,12.03125c-23.86719,-0.46485 -47.73047,-1.14453 -71.59375,-1.6875c-8.51172,-0.26563 -17.03907,-0.02344 -25.54297,-0.625c4.85547,-0.01563 9.71094,0.08203 14.5664,0.00781c-2.00781,-16.87891 -4.55078,-33.70313 -6.76953,-50.55859c-0.9414,-8.07032 -2.55078,-16.07032 -3.07812,-24.1836zm0,0" fill="#2f83b1"/>
   <path id="svg_272" class="colora3a3a3 svgShape" d="m79.23438,728.39453c4.08984,0.60156 7.7539,2.61719 11.6914,3.73828c-4.24219,0.15235 -7.97656,-2.00781 -11.6914,-3.73828zm0,0" fill="#6eb3d8"/>
   <use id="svg_273" xlink:href="#svg_14" mask="url(#svg_13)"/>
   <use id="svg_274" xlink:href="#svg_12" mask="url(#svg_11)"/>
   <use id="svg_275" xlink:href="#svg_10" mask="url(#svg_9)"/>
   <use id="svg_276" xlink:href="#svg_8" mask="url(#svg_7)"/>
   <use id="svg_277" xlink:href="#svg_6" mask="url(#svg_5)"/>
   <path id="svg_278" class="color616161 svgShape" d="m1005.94141,774.73047c12.23828,0.22656 24.5039,-0.51172 36.71093,0.66406c7.54297,0.625 15.17579,-0.58984 22.66407,0.78516c-12.11328,0.30469 -24.20703,-0.73828 -36.3125,-0.75391c-7.69532,-0.23047 -15.39063,-0.02344 -23.0625,-0.69531zm0,0" fill="#297199"/>
   <path id="svg_279" class="color707070 svgShape" d="m1976.53125,775.08984l0.10547,-0.00781c0.85547,1.07422 1.69531,2.1211 2.53516,3.25781c0.05468,0.3125 0.16796,0.94532 0.22265,1.26172c-39.55859,0.08985 -79.11719,0.14453 -118.67187,-0.03125c2.625,-1.20703 5.55468,-0.70312 8.35156,-1.03125c6.09766,-0.73437 12.24219,-0.48047 18.37109,-0.66406c7.22266,0.03125 14.41407,-0.81641 21.64844,-0.71094c10.39063,0.10938 20.74219,-1.01562 31.14063,-0.89062c6.41796,0.17969 12.80078,-0.78125 19.22656,-0.66406c5.67969,-0.15625 11.38281,0 17.07031,-0.51954zm0,0" fill="#2f83b1"/>
   <path id="svg_280" class="color616161 svgShape" d="m1069.09375,776.37109c7.8125,0.21485 15.71875,-0.60937 23.47656,0.57422c-7.83203,0.22657 -15.66406,-0.20703 -23.47656,-0.57422zm0,0" fill="#297199"/>
   <use id="svg_281" xlink:href="#svg_4" mask="url(#svg_3)"/>
   <use id="svg_282" xlink:href="#svg_2" mask="url(#svg_1)"/>
  </svg>
 </g>
</svg>